# xmcd
#
# Track frame offsets:
#	150
#	17810
#	37177
#	53247
#	72567
#	90767
#	113437
#	139199
#	154801
#	166538
#	187018
#	208315
#
# Disc length: 2998 seconds
#
# Revision: 2
# Processed by: cddbd v1.5.2PL0 Copyright (c) Steve Scherf et al.
# Submitted via: EasyCDDAExtractor 16.1.0.1
#
DISCID=a10bb40c
DTITLE=Various Artist - DC Blues
DYEAR=2001
DGENRE=Blues
TTITLE0=Pepe Ahlqvist - The Blues That I Got
TTITLE1=Pelle Miljoona - 13 Bar Blues
TTITLE2=Virve Rosti - No Reason
TTITLE3=Dave Lindholm - First Train To Texas
TTITLE4=Jay Day - Georgia Rain
TTITLE5=Dundee - Swim
TTITLE6=Anna Babitzin - Bad Boy
TTITLE7=Andy McCoy - Just Bad
TTITLE8=Kari Kuivalainen - Rain Today
TTITLE9=Muska Babitzin - Cry Your Heart Out
TTITLE10=Remu - Are You Ready For A Good Time
TTITLE11=Ykä Babitzin - That's My Woman
EXTD=
EXTT0=
EXTT1=
EXTT2=
EXTT3=
EXTT4=
EXTT5=
EXTT6=
EXTT7=
EXTT8=
EXTT9=
EXTT10=
EXTT11=
PLAYORDER=
